<?xml version="1.0" encoding="UTF-8"?>
<!-- Created with Inkscape (http://www.inkscape.org/) -->
<svg width="512" height="512" version="1.1" viewBox="0 0 135.46666 135.46666" xmlns="http://www.w3.org/2000/svg" xmlns:cc="http://creativecommons.org/ns#" xmlns:dc="http://purl.org/dc/elements/1.1/" xmlns:rdf="http://www.w3.org/1999/02/22-rdf-syntax-ns#">
 <defs>
  <clipPath>
   <path d="m0 0h2183.7v912h-2183.7z"/>
  </clipPath>
  <clipPath id="a">
   <path d="m230.89 51.977-49.742-49.739c-2.8622-2.8648-7.5082-2.8648-10.374 0l-10.329 10.33 13.102 13.103c3.0459-1.0284 6.5371-0.33888 8.9639 2.0884 2.4394 2.4424 3.124 5.9634 2.0698 9.0195l12.628 12.628c3.0551-1.0528 6.58-0.37262 9.0195 2.0712 3.4106 3.4096 3.4106 8.9345 0 12.345-3.4111 3.4116-8.936 3.4116-12.349 0-2.5645-2.5665-3.1988-6.3345-1.8999-9.4942l-11.777-11.777-1e-3 30.991c0.8315 0.41162 1.6162 0.961 2.3091 1.6509 3.4096 3.4092 3.4096 8.9331 0 12.348-3.4106 3.4091-8.938 3.4091-12.345 0-3.4101-3.4146-3.4101-8.9385 0-12.348 0.84275-0.84125 1.8179-1.478 2.8584-1.9048v-31.279c-1.0405-0.42538-2.0141-1.0576-2.8584-1.9049-2.583-2.581-3.2051-6.372-1.8804-9.5439l-12.916-12.918-34.106 34.104c-2.8657 2.8671-2.8657 7.5131 0 10.378l49.742 49.739c2.8638 2.8647 7.5082 2.8647 10.376 0l49.509-49.508c2.8648-2.8662 2.8648-7.5136 0-10.379" fill="#f03c2e"/>
  </clipPath>
 </defs>
 <metadata>
  <rdf:RDF>
   <cc:Work rdf:about="">
    <dc:format>image/svg+xml</dc:format>
    <dc:type rdf:resource="http://purl.org/dc/dcmitype/StillImage"/>
    <dc:title/>
   </cc:Work>
  </rdf:RDF>
 </metadata>
 <g transform="translate(0 -161.53)">
  <circle cx="67.733" cy="229.27" r="67.733" stroke-width=".11559"/>
  <g transform="matrix(.89182 0 0 .89183 16.933 178.45)">
   <g transform="matrix(1.25 0 0 -1.25 -.33805 139.41)">
    <g transform="scale(.1)"></g>
   </g>
   <g transform="translate(-.33805 25.402)">
    <g transform="translate(-118.78 -25.476)" clip-path="url(#a)">
     <path d="m230.44-10.813-49.742-49.739c-2.8622-2.8648-7.5082-2.8648-10.374 0-16.502 16.504-33.007 33.006-49.51 49.509-2.8657 2.8671-2.8657 7.5131 0 10.378l49.742 49.739c2.8638 2.8648 7.5082 2.8648 10.376 0l49.509-49.508c2.8647-2.8662 2.8647-7.5136 0-10.379" fill="#ff8080"/>
     <path d="m293.39 51.928-49.742-49.739c-2.8622-2.8647-7.5082-2.8647-10.374 0-16.502 16.504-33.007 33.006-49.51 49.509-2.8657 2.8671-2.8657 7.5131 0 10.378l49.742 49.739c2.8638 2.8648 7.5082 2.8648 10.376 0l49.509-49.508c2.8647-2.8662 2.8647-7.5136 0-10.379" fill="#8dd35f"/>
     <path d="m167.44 51.521-49.742-49.739c-2.8622-2.8648-7.5082-2.8648-10.374 0-16.502 16.504-33.007 33.006-49.51 49.509-2.8657 2.8671-2.8657 7.5131 0 10.378l49.742 49.739c2.8638 2.8648 7.5082 2.8648 10.376 0l49.509-49.508c2.8647-2.8662 2.8647-7.5136 0-10.379" fill="#80b3ff"/>
     <path d="m230.13 114.12-49.742-49.739c-2.8622-2.8648-7.5083-2.8648-10.374 0-16.502 16.504-33.007 33.006-49.51 49.509-2.8657 2.8671-2.8657 7.5131 0 10.378l49.742 49.739c2.8638 2.8648 7.5082 2.8648 10.376 0l49.509-49.508c2.8647-2.8662 2.8647-7.5136 0-10.379" fill="#ffe680"/>
    </g>
   </g>
  </g>
 </g>
</svg>
